<?xml version="1.0" encoding="UTF-8"?>
<svg id="Gold_Foil" xmlns="http://www.w3.org/2000/svg" version="1.1" viewBox="0 0 1000 619.06">
  <!-- Generator: Adobe Illustrator 30.0.0, SVG Export Plug-In . SVG Version: 2.1.1 Build 123)  -->
  <defs>
    <style>
      .st0 {
        fill: #fff;
      }

      .st1 {
        fill: #c6c6c5;
      }

      .st2 {
        fill: #dcdbdb;
      }
    </style>
  </defs>
  <g>
    <path class="st0" d="M601.93,145.26c17.75,24.17,33.11,50.09,45.45,76.54-9.49-6.07-19.58-11.07-29.89-14.76-8.95-16.71-18.63-32.08-28.75-46.14l13.19-15.65ZM656.16,410.61c4.97,10.6,8.37,21.8,10.19,33.14,13.76-29.95,18.62-69.85,13.47-113.14-7.95-8.18-16.25-17.11-24.43-26.76,11.03,45.48,7.89,78.86-2.38,100.56,1.1,2.03,2.16,4.09,3.15,6.2ZM499.96,122.73s0,0,0,0c-.02,0-.04-.01-.06-.02-2.68-.83-5.36-1.52-8.05-2.08-.12-.02-.24-.05-.36-.07-1.34-.27-2.68-.51-4.02-.71,0,0-.02,0-.02,0-1.31-.2-2.63-.35-3.95-.48-.12-.01-.24-.02-.35-.04-1.34-.12-2.67-.21-4.01-.26-.05,0-.09,0-.14,0-1.32-.05-2.64-.05-3.96-.03-.07,0-.14,0-.21,0-1.35.03-2.71.1-4.06.22-.05,0-.11.01-.16.01-1.35.11-2.71.27-4.06.46-.01,0-.02,0-.03,0-1.36.2-2.73.44-4.09.72-.07.01-.14.03-.2.04-2.69.57-5.38,1.3-8.06,2.21-.1.04-.21.07-.31.11-2.63.91-5.24,1.98-7.84,3.23-.16.08-.33.16-.49.24-2.52,1.24-5.03,2.64-7.53,4.22-.25.16-.49.31-.74.47-1.22.79-2.44,1.61-3.65,2.48-41.78,30.12-47.52,99.21-28.5,169.26,2.26,8.3,4.87,16.64,7.75,24.91l8.27,21.12c4.34,10.19,9.21,20.21,14.52,29.94,28,51.45,68.64,94.89,116.46,111.91,1.62.58,3.23,1.11,4.82,1.61.52.16,1.03.31,1.54.47,1.08.33,2.15.64,3.22.94.59.16,1.17.31,1.76.47,1,.26,2,.51,3,.74.57.13,1.14.27,1.71.39,1.06.23,2.12.44,3.17.64.47.09.93.19,1.4.27,1.5.26,2.98.5,4.45.69.19.03.37.04.56.06,1.28.16,2.56.3,3.82.42.48.04.96.07,1.44.11.97.07,1.93.13,2.89.17.52.02,1.04.04,1.56.05.93.02,1.84.03,2.75.03.49,0,.99,0,1.47-.01,1.02-.02,2.02-.06,3.02-.12.36-.02.72-.03,1.07-.05,1.35-.09,2.69-.21,4.01-.37.22-.03.44-.06.67-.09,1.1-.14,2.18-.29,3.26-.47.42-.07.82-.15,1.24-.23.88-.16,1.76-.34,2.63-.53.44-.1.87-.2,1.31-.3.86-.21,1.72-.43,2.57-.66.39-.11.79-.21,1.18-.33,1-.29,1.99-.61,2.97-.94.22-.07.44-.14.65-.21,1.21-.43,2.41-.88,3.59-1.36.19-.08.38-.17.58-.25.97-.41,1.93-.83,2.88-1.28.33-.16.66-.32.98-.48.82-.4,1.62-.81,2.42-1.24.34-.18.67-.36,1.01-.55.82-.45,1.62-.92,2.42-1.41.28-.17.56-.33.83-.5,1.03-.64,2.05-1.31,3.05-2,.03-.02.05-.03.08-.05.71-.49,1.4-1.01,2.09-1.53-4.9-15.63-12.48-31.98-20.24-48.04-22.6,3.38-64.72-6.07-110.9-86.34-4.71-8.14-9.47-17.03-14.23-26.75-1.66-3.36-3.25-6.77-4.75-10.18l-8.49-20.99c-4.21-11.6-7.62-23.15-10.21-34.44-14.4-62.55-3.93-115.37,32.18-110.79,18.21,2.32,37.85,14.08,55.64,31.89,0,0,.01-.01.02-.02l1.51,1.58,74.51-80.33-12.34-12.12-62.24,73.84c-17.4-17.64-36.77-31.11-56.69-37.28ZM730.29,236.3c-8.53,32.27-13.15,65.72-13.84,99.27-.39,18.8.46,37.64,2.55,56.31,14.29-31.64,19.07-77.78,20.41-95.11.06,1.39.12,2.78.15,4.16.66,43.16-10.28,86.16-29.27,124-1.11,2.2-2.26,4.37-3.42,6.54,1.52-7.42,2.64-14.92,3.33-22.47,1.19-12.97,1.1-26.06-.26-38.98-1.09-10.3-3.02-20.48-5.72-30.39,5.56-59.56-42.93-110.75-94.57-126.61,15.71,45.49,47.6,83.61,80.73,117.07-9.97-33.93-31.38-65.02-42.37-79.53,13.58,14.66,25.46,31.07,34.61,49.12,11.12,22.01,18.08,46.35,19.84,71.13,1.81,24.77-1.39,49.8-8.86,73.16-1.84,5.85-4.02,11.57-6.37,17.2-7.14,16.78-16.43,32.59-27.48,46.69-2.65,3.37-5.41,6.65-8.26,9.84,1.34-5.14,2.42-10.35,3.21-15.62.39-2.56.69-5.13.92-7.7,16.55-52.72-12.11-115.35-61.61-132.33,9.6,38.59,38.83,81.26,50.5,121.55,3.19-33.62-8.75-62.84-15.79-76.74,17.71,26.9,25.64,61.45,19.37,93.95-.74,3.91-1.65,7.77-2.72,11.59-3.23,11.57-9.87,21.71-18.92,28.81-6.02,4.72-11.98,9.62-18.79,12.96-34.19,16.81-111.44,17.81-203.82-111.24-8.92-12.47-17.14-25.67-24.68-39.44-4.27-7.7-8.26-15.61-11.99-23.62l-9.13-20.62c-2.21-5.4-4.34-10.83-6.31-16.32-12.51-34.08-20.86-69.22-24.31-102.54-11.64-111.44,36.73-187.42,107.4-188.48,32.81-.48,85.55,27.5,133.09,82.56l13.1-15.55c-10.64-12.37-21.9-24.1-33.76-34.94-56.9-52.05-132.59-72.6-198.63-35.54-10.87,6.12-21.51,13.81-31.77,23.21-92.66,84.84-85.73,230.66-48.32,333.84,4.32,11.9,7.3,18.41,16.68,37.38l.72,1.47c73.27,141.36,198.43,169.61,313.83,127.07,4.42-1.63,8.54-4.01,12.69-6.31,21.64-11.98,40.76-29.05,56.18-49.25,8.92-11.55,16.6-24.32,22.89-37.78,3.2-6.83,6.65-13.52,10.45-19.97,5.58-9.48,10.67-19.28,15.21-29.36,4.51-10.17,8.51-20.67,11.91-31.41,9.58-13.68,21.12-35.32,24.55-64.07,5.37-44.95-12.35-79.99-23.35-96.96Z"/>
    <polygon class="st1" points="618.98 86.42 628.62 96.78 634.23 99.65 625.5 89.71 618.98 86.42"/>
  </g>
  <polygon class="st2" points="628.62 96.78 556.73 178.62 562.35 180.76 634.24 99.68 628.62 96.78"/>
</svg>