<?xml version="1.0" encoding="UTF-8"?>
<svg id="Gold_Foil" xmlns="http://www.w3.org/2000/svg" version="1.1" xmlns:xlink="http://www.w3.org/1999/xlink" viewBox="0 0 1000 619.06">
  <!-- Generator: Adobe Illustrator 30.0.0, SVG Export Plug-In . SVG Version: 2.1.1 Build 123)  -->
  <defs>
    <style>
      .st0 {
        fill: url(#Pantone_Metallics_10121_C1);
      }

      .st1 {
        fill: url(#Pantone_Metallics_10121_C2);
      }

      .st2 {
        fill: url(#Pantone_Metallics_10121_C);
      }

      .st3 {
        fill: url(#Pantone_Metallics_10121_C3);
      }
    </style>
    <linearGradient id="Pantone_Metallics_10121_C" data-name="Pantone  Metallics 10121 C" x1="215.44" y1="474.74" x2="801.91" y2="474.74" gradientUnits="userSpaceOnUse">
      <stop offset="0" stop-color="#b58742"/>
      <stop offset=".18" stop-color="#caa85a"/>
      <stop offset=".37" stop-color="#cdac5f"/>
      <stop offset=".51" stop-color="#ab8a30"/>
      <stop offset=".79" stop-color="#e5c37e"/>
      <stop offset="1" stop-color="#a9882f"/>
    </linearGradient>
    <linearGradient id="Pantone_Metallics_10121_C1" data-name="Pantone  Metallics 10121 C" x1="372.29" y1="186.98" x2="645.06" y2="186.98" xlink:href="#Pantone_Metallics_10121_C"/>
    <linearGradient id="Pantone_Metallics_10121_C2" data-name="Pantone  Metallics 10121 C" x1="572.79" y1="71.62" x2="580.91" y2="71.62" xlink:href="#Pantone_Metallics_10121_C"/>
    <linearGradient id="Pantone_Metallics_10121_C3" data-name="Pantone  Metallics 10121 C" x1="539.62" y1="95.76" x2="580.92" y2="95.76" xlink:href="#Pantone_Metallics_10121_C"/>
  </defs>
  <path class="st2" d="M308.34,580.7c-2.31,0-4.51-1.85-4.51-4.53s2.18-4.53,4.51-4.53c1.36,0,2.44.58,3.06,1.29l-.81.9c-.43-.51-1.24-.93-2.25-.93-1.61,0-3.08,1.35-3.08,3.25s1.51,3.28,3.08,3.28c1.45,0,2.48-.83,2.64-2.34h-1.98v-1.03h3.26c.22,2.89-1.56,4.63-3.92,4.63ZM323.05,577.32c0,2.11-1.56,3.38-3.48,3.38s-3.48-1.27-3.48-3.38v-5.6h1.28v5.6c0,1.54,1,2.26,2.2,2.26s2.2-.72,2.2-2.26v-5.6h1.28v5.6ZM332.42,578.44h-3.8l-.96,2.17h-1.43l4.16-8.89h.25l4.16,8.89h-1.42l-.96-2.17ZM331.93,577.35l-1.41-3.14-1.4,3.14h2.81ZM343.56,580.61l-2.31-3.35h-1.37v3.35h-1.32v-8.89h3c1.96,0,3.16,1.17,3.16,2.77,0,1.29-.8,2.31-2.13,2.65l2.44,3.47h-1.46ZM339.88,576.09h1.6c1.18,0,1.92-.58,1.92-1.6s-.74-1.6-1.92-1.6h-1.6v3.2ZM356.33,576.16c0,2.49-1.92,4.46-4.47,4.46h-2.84v-8.89h2.84c2.55,0,4.47,1.97,4.47,4.43ZM355.01,576.16c0-1.87-1.18-3.31-3.15-3.31h-1.52v6.65h1.52c1.97,0,3.15-1.46,3.15-3.34ZM361.74,580.61h-1.33v-8.89h1.33v8.89ZM371.69,578.44h-3.8l-.96,2.17h-1.43l4.16-8.89h.25l4.16,8.89h-1.42l-.96-2.17ZM371.2,577.35l-1.41-3.14-1.4,3.14h2.81ZM384.86,580.61h-1.26l-4.46-6.65v6.65h-1.32v-8.89h1.26l4.46,6.65v-6.65h1.32v8.89ZM395,573.43l-1.14.39c-.27-.6-.89-1.04-1.76-1.04s-1.54.46-1.54,1.14c0,.63.37,1,1.28,1.31l.71.24c1.71.58,2.63,1.41,2.63,2.73,0,1.65-1.66,2.5-3.12,2.5-1.59,0-2.82-.84-3.26-2.08l1.09-.48c.29.8,1.1,1.42,2.17,1.42.9,0,1.82-.44,1.82-1.36s-.63-1.21-1.64-1.55l-.74-.27c-1.32-.46-2.25-1.13-2.25-2.46s1.28-2.29,2.81-2.29,2.53.88,2.95,1.79ZM414.18,576.17c0,2.68-2.2,4.53-4.44,4.53s-4.46-1.85-4.46-4.53,2.27-4.53,4.46-4.53,4.44,1.85,4.44,4.53ZM406.71,576.17c0,1.96,1.49,3.26,3.02,3.26,1.65,0,3.02-1.31,3.02-3.26s-1.37-3.26-3.02-3.26c-1.54,0-3.02,1.31-3.02,3.26ZM419.46,572.88v2.74h3.52v1.17h-3.52v3.82h-1.35v-8.89h5.51v1.16h-4.16ZM439.82,572.89h-2.39v7.72h-1.38v-7.72h-2.39v-1.17h6.16v1.17ZM450.69,571.73v8.89h-1.32v-3.82h-4.23v3.82h-1.32v-8.89h1.32v3.94h4.23v-3.94h1.32ZM460.47,579.46v1.16h-5.65v-8.89h5.52v1.16h-4.18v2.74h2.91v1.16h-2.91v2.68h4.3ZM479.53,576.17c0,2.68-2.2,4.53-4.44,4.53s-4.46-1.85-4.46-4.53,2.27-4.53,4.46-4.53,4.44,1.85,4.44,4.53ZM472.06,576.17c0,1.96,1.49,3.26,3.02,3.26,1.65,0,3.02-1.31,3.02-3.26s-1.37-3.26-3.02-3.26c-1.54,0-3.02,1.31-3.02,3.26ZM489.42,579.5v1.12h-5.75v-8.89h1.31v7.77h4.44ZM494.84,580.61h-1.33v-8.89h1.33v8.89ZM503.02,580.61h-.25l-4.16-8.89h1.43l2.86,6.4,2.87-6.4h1.42l-4.16,8.89ZM516.39,579.46v1.16h-5.65v-8.89h5.52v1.16h-4.18v2.74h2.91v1.16h-2.91v2.68h4.3ZM517.94,580.36h1.73l-1.09,1.97h-1.14l.51-1.97ZM533.32,576.16l4,4.46h-1.5l-3.25-3.54-1.51,1.8v1.74h-1.33v-8.89h1.33v5.42l4.47-5.42h1.51l-3.72,4.43ZM546.59,579.46v1.16h-5.65v-8.89h5.52v1.16h-4.18v2.74h2.91v1.16h-2.91v2.68h4.3ZM556.05,579.46v1.16h-5.65v-8.89h5.52v1.16h-4.18v2.74h2.91v1.16h-2.91v2.68h4.3ZM566.21,574.49c0,1.6-1.21,2.77-3.16,2.77h-1.68v3.35h-1.32v-8.89h3c1.96,0,3.16,1.17,3.16,2.77ZM564.89,574.49c0-1.02-.74-1.6-1.92-1.6h-1.6v3.2h1.6c1.18,0,1.92-.58,1.92-1.6ZM575.73,579.46v1.16h-5.65v-8.89h5.52v1.16h-4.18v2.74h2.91v1.16h-2.91v2.68h4.3ZM584.73,580.61l-2.31-3.35h-1.37v3.35h-1.32v-8.89h3c1.96,0,3.16,1.17,3.16,2.77,0,1.29-.8,2.31-2.13,2.65l2.44,3.47h-1.46ZM581.05,576.09h1.6c1.18,0,1.92-.58,1.92-1.6s-.74-1.6-1.92-1.6h-1.6v3.2ZM595.7,573.43l-1.14.39c-.27-.6-.89-1.04-1.76-1.04s-1.54.46-1.54,1.14c0,.63.37,1,1.28,1.31l.71.24c1.71.58,2.63,1.41,2.63,2.73,0,1.65-1.66,2.5-3.12,2.5-1.59,0-2.82-.84-3.26-2.08l1.09-.48c.29.8,1.1,1.42,2.17,1.42.9,0,1.82-.44,1.82-1.36s-.63-1.21-1.64-1.55l-.74-.27c-1.32-.46-2.25-1.13-2.25-2.46s1.28-2.29,2.81-2.29,2.53.88,2.95,1.79ZM614.87,576.17c0,2.68-2.2,4.53-4.44,4.53s-4.46-1.85-4.46-4.53,2.27-4.53,4.46-4.53,4.44,1.85,4.44,4.53ZM607.41,576.17c0,1.96,1.49,3.26,3.02,3.26,1.65,0,3.02-1.31,3.02-3.26s-1.37-3.26-3.02-3.26c-1.54,0-3.02,1.31-3.02,3.26ZM620.16,572.88v2.74h3.52v1.17h-3.52v3.82h-1.35v-8.89h5.51v1.16h-4.16ZM640.52,572.89h-2.39v7.72h-1.38v-7.72h-2.39v-1.17h6.16v1.17ZM651.39,571.73v8.89h-1.32v-3.82h-4.23v3.82h-1.32v-8.89h1.32v3.94h4.23v-3.94h1.32ZM661.17,579.46v1.16h-5.65v-8.89h5.52v1.16h-4.18v2.74h2.91v1.16h-2.91v2.68h4.3ZM675.64,580.7c-2.31,0-4.51-1.85-4.51-4.53s2.18-4.53,4.51-4.53c1.36,0,2.44.58,3.06,1.29l-.81.9c-.43-.51-1.24-.93-2.25-.93-1.61,0-3.08,1.35-3.08,3.25s1.51,3.28,3.08,3.28c1.45,0,2.48-.83,2.64-2.34h-1.98v-1.03h3.26c.22,2.89-1.56,4.63-3.92,4.63ZM692.17,576.17c0,2.68-2.2,4.53-4.44,4.53s-4.46-1.85-4.46-4.53,2.27-4.53,4.46-4.53,4.44,1.85,4.44,4.53ZM684.71,576.17c0,1.96,1.49,3.26,3.02,3.26,1.65,0,3.02-1.31,3.02-3.26s-1.37-3.26-3.02-3.26c-1.54,0-3.02,1.31-3.02,3.26ZM702.06,579.5v1.12h-5.75v-8.89h1.31v7.77h4.44ZM713.52,576.16c0,2.49-1.92,4.46-4.47,4.46h-2.84v-8.89h2.84c2.55,0,4.47,1.97,4.47,4.43ZM712.19,576.16c0-1.87-1.18-3.31-3.15-3.31h-1.52v6.65h1.52c1.97,0,3.15-1.46,3.15-3.34ZM617.22,519.27c.34.68.25,1.47.16,2.21-.01.1-.02.19-.03.3-.52,4.05-1.6,8.73-5.37,10.23-1.36.55-2.87.55-4.34.55-30.43.02-60.86.04-91.29.05-.83,0-1.7,0-2.42-.41-1.46-.84-1.64-2.83-1.64-4.52-.05-33.9-.09-67.81-.14-101.7,0-7.67-.02-15.34.03-23.01.02-3.46.1-7.11,1.87-10.08,2.16-3.64,6.15-5.21,9.79-6.93.74-.35,11.14-5.33,11.14-4.65,0,45.24,0,90.47.02,135.71,0,1.64.13,3.56,1.48,4.5.93.65,2.16.61,3.29.54,24.47-1.4,48.94-2.78,73.41-4.16,1.51-.09,3.37.02,4.04,1.37ZM795.34,532.58c-11.56.98-21.13-1.88-30.65-9.25-17.9-13.83-38.16-23.59-60.43-28.82-3.23-.76-4.76-.47-6.14,2.89-4.19,10.08-8.97,19.92-13.21,29.96-1.62,3.85-3.86,5.35-8.03,5.11-5.79-.34-11.6-.22-17.4,0-3.75.14-5.89-1.26-7.32-4.77-4.16-10.25-8.68-20.35-12.85-30.6-1.17-2.84-2.46-3.97-5.68-3.23-14.1,3.22-28.21,6.28-42.36,9.25-8.03,1.69-16.15,2.88-24.43,2.75-6.44-.1-7.48-1.25-4.93-7.07,5-11.45,10.11-22.85,15.23-34.24l30.07-67.82,5.18-11.67c1.47-3.34,6.27-3.14,7.48.3.02.03.03.08.03.1l.06.15c7.55,21.27,16.46,42.01,24.97,62.91,1.46,3.59,2.91,7.18,4.33,10.78,1.77,4.46,2.66,10.51,6,12.73,3.37,2.22,9.31.62,14.11.57,8.22-.08,16.45.12,24.52,1.86,3.15.7,4.27-.8,5.36-3.22,12.27-27.23,24.56-54.43,36.87-81.63.34-.74.64-1.48.97-2.21.7-1.44,1.26-2.95,3.35-2.91,2.15.06,2.57,1.75,3.15,3.16,3.92,9.32,7.84,18.63,11.69,27.99,15,36.49,29.97,73.01,44.96,109.51,2.82,6.86,2.54,6.8-4.92,7.42ZM630.27,474.87c-7.37-17.21-14.72-34.42-22.61-52.84-10.41,23.14-20.24,44.96-30.52,67.76,17.99-4.47,34.85-8.99,51.99-12.21,2.03-.39,1.72-1.35,1.14-2.71ZM687.29,491.12c-7.34-.51-14.7-1.31-22.11-.82-2.21.15-2.66.71-1.79,2.86,3.72,9.18,7.49,18.33,12.72,28.27,4.6-10.03,8.7-19,12.82-27.95.8-1.76-.02-2.24-1.64-2.36ZM767.85,509.34c-12.31-29.51-24.03-57.64-35.92-86.16-2.37,2.64-2.88,5.41-4,7.84-6.58,14.28-13.06,28.62-19.57,42.94-.87,1.93-1.82,3.55,1.53,4.51,21.02,5.97,39.58,16.66,57.96,30.86ZM498.38,525.58c2.61,6.25,2.18,6.82-4.57,6.76-2.1-.01-4.19,0-6.29,0q-11.83.03-16.51-10.88c-3.16-7.38-6.44-14.7-9.47-22.13-1.15-2.83-2.87-4.89-5.49-6.42-17.01-9.87-34.4-10.44-52.08-2.01-4.59,2.19-7.99,5.6-10.38,10-.36.65-.69,1.32-.99,2.01-.15.34-.3.68-.46,1.01-3.07,6.83-6.24,13.62-9.41,20.4-.55,1.19-1.1,2.36-1.65,3.54-1.68,3.58-6.77,5.61-10.39,4.14-.13-.05-.26-.11-.38-.18-.47-.24-.97-.62-.99-1.21-.03-.46.24-.9.49-1.27,1.4-2.08,2.35-4.43,3.35-6.73-2.01-6.5-5.63-15.43-12.33-24.55-1.96,3.48-3.97,6.49-5.85,9.04,0,.01-.01.02-.02.03h0c-6.9,8.84-14.52,15.61-22.79,20.23-15.24,8.5-32.94,9.25-46.2,1.96-7.55-4.15-13.89-11.04-17.86-19.4-8.08-16.96-7.67-38.95,8.72-48.16,8.06-4.51,17.64-5.38,26.7-4.89,13.34.74,26.54,4.27,38.46,10.31.87.45,1.72.9,2.58,1.36.74.4,1.52.84,2.4,1.35l.66.38.08-.75c1.42-14.83,2.29-32.2-2.04-48.69-4.63-17.66-15.02-31.87-28.49-38.97-8.59-4.53-18.85-6.4-28.91-5.25-9.5,1.07-18.58,4.85-25.54,10.63-7.92,6.57-14.12,16.43-18.44,29.29-6.87,20.51-7.44,43.27-1.61,64.08,5.02,17.89,14.66,34.32,27.86,47.52l.07.07c1.78,1.78,3.65,3.52,5.58,5.2-18.63-2.65-36.21-14.54-47.22-32.01-3.11-4.96-5.74-10.37-7.79-16.07-4.46-12.37-6.33-25.91-5.56-40.25.68-12.71,3.7-24.67,9-35.54,5.6-11.51,13.56-21.23,23.03-28.11,12.11-8.8,27.76-13.85,44.09-14.23.65-.01,1.3-.02,1.96-.02,26.43,0,51.25,12.35,65.14,32.56.7,1.02,1.37,2.06,1.99,3.08,7.53,12.28,11.71,27.6,12.09,44.29.27,11.46-1.21,22.44-4.4,32.72l.02-.02c-.37,1.27-.8,2.61-1.27,3.99-.47,1.36-1.01,2.77-1.59,4.23.65.83,1.29,1.7,1.93,2.58,5.07,7.07,8.56,14.04,10.98,20.21,1.62-3.49,3.25-6.99,4.85-10.49.66-1.43,1.33-2.86,1.99-4.3,1.19-2.58,2.37-5.16,3.55-7.75,15.05-33.01,30.04-66.05,45.09-99.07.82-1.79.93-4.46,3.69-4.43,2.82.01,2.81,2.72,3.57,4.52,19.06,45.43,38.09,90.87,57.08,136.31ZM342.84,480.48c-.09-.24-.27-.43-.49-.62-.12-.1-.24-.19-.37-.28-.07-.04-.13-.09-.19-.13-.19-.13-.37-.25-.55-.37-.03-.02-.07-.05-.1-.07-6.25-4.1-12.98-7.49-20-10.11-7.01-2.62-14.32-4.46-21.73-5.44-3.74-.5-8.65-.94-13.4-.03-5.62,1.09-10.14,4.07-13.07,8.59-3.71,5.75-4.77,13.66-2.89,21.7,1.68,7.15,4.74,13.5,8.83,18.38,4.64,5.5,10.72,9.23,17.12,10.53l.2.04c6.57,1.27,13.83.03,20.43-3.47,5.84-3.11,11.15-7.89,15.79-14.24,5.09-6.97,8.68-14.92,10.38-23.01.12-.53.2-1.05.03-1.47ZM452.41,476.54c-7.93-18.21-15.61-35.79-23.62-54.21-8.89,20.08-17.44,39.42-26.56,59.99,9.08-3.8,16.97-6.43,25.25-7.37,8.21-.93,16.43-.72,24.92,1.59Z"/>
  <g>
    <path class="st0" d="M563.71,99.44c9.46,12.88,17.64,26.69,24.21,40.78-5.06-3.23-10.43-5.9-15.93-7.86-4.77-8.9-9.93-17.09-15.31-24.58l7.03-8.34ZM592.6,240.81c2.65,5.65,4.46,11.62,5.43,17.66,7.33-15.96,9.92-37.21,7.18-60.28-4.23-4.36-8.65-9.12-13.02-14.26,5.87,24.23,4.2,42.01-1.27,53.57.58,1.08,1.15,2.18,1.68,3.31ZM509.38,87.44s0,0,0,0c0,0-.02,0-.03,0-1.43-.44-2.86-.81-4.29-1.11-.06-.01-.13-.03-.19-.04-.71-.14-1.43-.27-2.14-.38,0,0,0,0-.01,0-.7-.1-1.4-.19-2.1-.25-.06,0-.13-.01-.19-.02-.71-.07-1.42-.11-2.14-.14-.02,0-.05,0-.07,0-.7-.02-1.41-.03-2.11-.01-.04,0-.07,0-.11,0-.72.02-1.44.06-2.16.11-.03,0-.06,0-.08,0-.72.06-1.44.14-2.16.25,0,0-.01,0-.02,0-.73.11-1.45.23-2.18.38-.04,0-.07.02-.11.02-1.43.3-2.87.69-4.29,1.18-.06.02-.11.04-.17.06-1.4.48-2.79,1.06-4.18,1.72-.09.04-.18.09-.26.13-1.34.66-2.68,1.41-4.01,2.25-.13.08-.26.17-.39.25-.65.42-1.3.86-1.95,1.32-22.26,16.05-25.32,52.85-15.18,90.17,1.21,4.42,2.59,8.87,4.13,13.27l4.41,11.25c2.31,5.43,4.9,10.77,7.73,15.95,14.92,27.41,36.57,50.56,62.05,59.62.86.31,1.72.59,2.57.86.28.09.55.17.82.25.58.17,1.15.34,1.72.5.31.09.62.17.94.25.54.14,1.07.27,1.6.39.3.07.61.14.91.21.57.12,1.13.23,1.69.34.25.05.5.1.74.14.8.14,1.59.26,2.37.37.1.01.2.02.3.03.68.09,1.36.16,2.03.22.26.02.51.04.77.06.52.04,1.03.07,1.54.09.28.01.56.02.83.03.49.01.98.02,1.47.02.26,0,.52,0,.79,0,.54-.01,1.08-.03,1.61-.06.19-.01.38-.02.57-.03.72-.05,1.43-.11,2.14-.2.12-.01.24-.03.35-.05.58-.07,1.16-.16,1.74-.25.22-.04.44-.08.66-.12.47-.09.94-.18,1.4-.28.23-.05.47-.11.7-.16.46-.11.91-.23,1.37-.35.21-.06.42-.11.63-.18.53-.16,1.06-.33,1.58-.5.11-.04.23-.07.35-.11.65-.23,1.28-.47,1.91-.73.1-.04.2-.09.31-.13.52-.22,1.03-.44,1.53-.68.18-.08.35-.17.52-.26.43-.21.86-.43,1.29-.66.18-.1.36-.19.54-.29.44-.24.87-.49,1.29-.75.15-.09.3-.18.44-.27.55-.34,1.09-.7,1.63-1.06.01,0,.03-.02.04-.03.38-.26.74-.54,1.11-.81-2.61-8.33-6.65-17.04-10.78-25.59-12.04,1.8-34.48-3.23-59.09-46-2.51-4.33-5.05-9.07-7.58-14.25-.89-1.79-1.73-3.61-2.53-5.42l-4.52-11.18c-2.24-6.18-4.06-12.33-5.44-18.35-7.67-33.32-2.09-61.47,17.15-59.02,9.7,1.24,20.16,7.5,29.64,16.99,0,0,0,0,0,0l.81.39,39.69-42.35-6.58-6.46-33.16,39.34c-9.27-9.4-19.59-16.58-30.2-19.86ZM632.09,147.94c-4.54,17.19-7.01,35.01-7.37,52.89-.21,10.02.25,20.05,1.36,30,7.61-16.85,10.16-41.44,10.88-50.67.03.74.06,1.48.08,2.22.35,23-5.48,45.9-15.59,66.06-.59,1.17-1.2,2.33-1.82,3.48.81-3.95,1.41-7.95,1.78-11.97.63-6.91.59-13.88-.14-20.77-.58-5.49-1.61-10.91-3.05-16.19,2.96-31.73-22.87-59-50.38-67.45,8.37,24.24,25.36,44.55,43.01,62.37-5.31-18.07-16.72-34.64-22.57-42.37,7.24,7.81,13.56,16.55,18.44,26.17,5.92,11.72,9.63,24.69,10.57,37.89.96,13.2-.74,26.53-4.72,38.98-.98,3.12-2.14,6.16-3.39,9.16-3.8,8.94-8.75,17.36-14.64,24.87-1.41,1.8-2.88,3.54-4.4,5.24.71-2.74,1.29-5.52,1.71-8.32.21-1.36.37-2.73.49-4.1,8.82-28.09-6.45-61.45-32.82-70.5,5.11,20.56,20.69,43.29,26.9,64.76,1.7-17.91-4.66-33.48-8.41-40.88,9.43,14.33,13.66,32.74,10.32,50.05-.4,2.08-.88,4.14-1.45,6.17-1.72,6.16-5.26,11.57-10.08,15.35-3.2,2.51-6.38,5.12-10.01,6.91-18.21,8.96-59.37,9.49-108.59-59.26-4.75-6.64-9.13-13.67-13.15-21.01-2.27-4.1-4.4-8.31-6.39-12.58l-4.86-10.99c-1.18-2.87-2.31-5.77-3.36-8.69-6.67-18.15-11.11-36.88-12.95-54.63-6.2-59.37,19.57-99.85,57.22-100.41,17.48-.25,45.58,14.65,70.91,43.99l6.98-8.28c-5.67-6.59-11.67-12.84-17.99-18.61-30.31-27.73-70.64-38.68-105.82-18.94-5.79,3.26-11.46,7.36-16.92,12.36-49.36,45.2-45.67,122.89-25.74,177.85,2.3,6.34,3.89,9.81,8.88,19.91l.39.78c39.03,75.31,105.71,90.36,167.2,67.7,2.35-.87,4.55-2.14,6.76-3.36,11.53-6.38,21.72-15.47,29.93-26.24,4.75-6.15,8.84-12.96,12.19-20.13,1.7-3.64,3.54-7.2,5.57-10.64,2.97-5.05,5.68-10.27,8.11-15.64,2.4-5.42,4.53-11.01,6.35-16.73,5.1-7.29,11.25-18.82,13.08-34.13,2.86-23.95-6.58-42.61-12.44-51.65Z"/>
    <polygon class="st1" points="572.79 68.1 577.93 73.62 580.91 75.14 576.26 69.85 572.79 68.1"/>
    <polygon class="st3" points="577.93 73.62 539.62 116.77 542.62 117.9 580.92 75.15 577.93 73.62"/>
  </g>
</svg>